<svg xmlns="http://www.w3.org/2000/svg" viewBox="0 0 131 24" style="enable-background:new 0 0 131 24" xml:space="preserve"><path d="M0 0v24h131V0H0zm85.2 15.4c-1 1.4-2.7 2.2-4.7 2.2-3.5 0-5.9-2.3-5.9-5.8S77 6 80.5 6c1.8 0 3.3.6 4.3 1.7l.1.1-1.4 1.4-.1-.1c-.8-.7-1.8-1.1-2.9-1.1-2.1 0-3.6 1.5-3.6 3.8s1.5 3.8 3.6 3.8c1 0 1.9-.3 2.5-.9v-1.9h-2.6v-1.9h4.9v4.5zm11.4-7.1h-6.3v2.6h5.9v2h-5.9v4.6H88V6.3h8.7v2zm9.6 0h-3.1v9.2h-2.3V8.3h-3v-2h8.4v2zm18.4 9.2h-11.1V6.3h11.1v11.2z" style="fill:#213e7f"/></svg>